<?xml version="1.0" encoding="UTF-8"?>
<!DOCTYPE svg PUBLIC "-//W3C//DTD SVG 1.1//EN" "http://www.w3.org/Graphics/SVG/1.1/DTD/svg11.dtd">
<svg version="1.1" xmlns="http://www.w3.org/2000/svg" xmlns:xlink="http://www.w3.org/1999/xlink" x="0" y="0" width="256" height="256" viewBox="0, 0, 256, 256">
  <g id="Background">
    <rect x="0" y="0" width="256" height="256" fill="#00A66A"/>
  </g>
  <g id="Ebene_1">
    <path d="M191,89.5 L70,89.5" fill-opacity="0" stroke="#FFFFFF" stroke-width="46"/>
    <path d="M70.5,67.5 L190.5,67.5 L190.5,187.5 L70.5,187.5 L70.5,67.5 z" fill-opacity="0" stroke="#FFFFFF" stroke-width="10"/>
    <g>
      <path d="M70.5,107.5 C48.409,107.5 30.5,89.591 30.5,67.5 C30.5,45.409 48.409,27.5 70.5,27.5 C92.591,27.5 110.5,45.409 110.5,67.5 C110.5,89.591 92.591,107.5 70.5,107.5 z" fill="#00A66A"/>
      <path d="M70.5,107.5 C48.409,107.5 30.5,89.591 30.5,67.5 C30.5,45.409 48.409,27.5 70.5,27.5 C92.591,27.5 110.5,45.409 110.5,67.5 C110.5,89.591 92.591,107.5 70.5,107.5 z" fill-opacity="0" stroke="#FFFFFF" stroke-width="10"/>
    </g>
    <path d="M45.5,67.5 L95.5,67.5" fill-opacity="0" stroke="#FFFFFF" stroke-width="10"/>
    <path d="M70.5,42.5 L70.5,92.5" fill-opacity="0" stroke="#FFFFFF" stroke-width="10"/>
    <g>
      <path d="M190.5,227.5 C168.409,227.5 150.5,209.591 150.5,187.5 C150.5,165.409 168.409,147.5 190.5,147.5 C212.591,147.5 230.5,165.409 230.5,187.5 C230.5,209.591 212.591,227.5 190.5,227.5 z" fill="#00A66A"/>
      <path d="M190.5,227.5 C168.409,227.5 150.5,209.591 150.5,187.5 C150.5,165.409 168.409,147.5 190.5,147.5 C212.591,147.5 230.5,165.409 230.5,187.5 C230.5,209.591 212.591,227.5 190.5,227.5 z" fill-opacity="0" stroke="#FFFFFF" stroke-width="10"/>
    </g>
    <path d="M165.5,187.5 L215.5,187.5" fill-opacity="0" stroke="#FFFFFF" stroke-width="10"/>
    <path d="M131.5,70.5 L131.5,191.5" fill-opacity="0" stroke="#FFFFFF" stroke-width="10"/>
  </g>
</svg>
